<mxfile host="Electron" modified="2024-06-25T07:46:00.206Z" agent="Mozilla/5.0 (X11; Linux x86_64) AppleWebKit/537.36 (KHTML, like Gecko) draw.io/24.5.3 Chrome/124.0.6367.207 Electron/30.0.6 Safari/537.36" etag="B_XuEHo_zyuWxd733-nx" version="24.5.3" type="device">
  <diagram name="Page-1" id="PNaimav8hJJ0Nxk3SrQI">
    <mxGraphModel dx="1368" dy="838" grid="1" gridSize="10" guides="1" tooltips="1" connect="1" arrows="1" fold="1" page="1" pageScale="1" pageWidth="850" pageHeight="1100" math="0" shadow="0">
      <root>
        <mxCell id="0" />
        <mxCell id="1" parent="0" />
        <mxCell id="-ypVMLoKg0l6CCi7f9At-11" value="Public subnet" style="points=[[0,0],[0.25,0],[0.5,0],[0.75,0],[1,0],[1,0.25],[1,0.5],[1,0.75],[1,1],[0.75,1],[0.5,1],[0.25,1],[0,1],[0,0.75],[0,0.5],[0,0.25]];outlineConnect=0;gradientColor=none;html=1;whiteSpace=wrap;fontSize=12;fontStyle=0;container=1;pointerEvents=0;collapsible=0;recursiveResize=0;shape=mxgraph.aws4.group;grIcon=mxgraph.aws4.group_security_group;grStroke=0;strokeColor=#7AA116;fillColor=#F2F6E8;verticalAlign=top;align=left;spacingLeft=30;fontColor=#248814;dashed=0;" vertex="1" parent="1">
          <mxGeometry x="200" y="160" width="520" height="160" as="geometry" />
        </mxCell>
        <mxCell id="-ypVMLoKg0l6CCi7f9At-1" value="AWS Cloud" style="sketch=0;outlineConnect=0;gradientColor=none;html=1;whiteSpace=wrap;fontSize=12;fontStyle=0;shape=mxgraph.aws4.group;grIcon=mxgraph.aws4.group_aws_cloud;strokeColor=#AAB7B8;fillColor=none;verticalAlign=top;align=left;spacingLeft=30;fontColor=#AAB7B8;dashed=0;" vertex="1" parent="1">
          <mxGeometry x="40" y="40" width="800" height="440" as="geometry" />
        </mxCell>
        <mxCell id="-ypVMLoKg0l6CCi7f9At-3" value="eu-central" style="sketch=0;outlineConnect=0;gradientColor=none;html=1;whiteSpace=wrap;fontSize=12;fontStyle=0;shape=mxgraph.aws4.group;grIcon=mxgraph.aws4.group_region;strokeColor=#B6BABF;fillColor=none;verticalAlign=top;align=left;spacingLeft=30;fontColor=#B6BABF;dashed=1;" vertex="1" parent="1">
          <mxGeometry x="120" y="80" width="680" height="300" as="geometry" />
        </mxCell>
        <mxCell id="-ypVMLoKg0l6CCi7f9At-4" value="&lt;font color=&quot;#b266ff&quot;&gt;easytrain-vpc&lt;/font&gt;" style="points=[[0,0],[0.25,0],[0.5,0],[0.75,0],[1,0],[1,0.25],[1,0.5],[1,0.75],[1,1],[0.75,1],[0.5,1],[0.25,1],[0,1],[0,0.75],[0,0.5],[0,0.25]];outlineConnect=0;gradientColor=none;html=1;whiteSpace=wrap;fontSize=12;fontStyle=0;container=1;pointerEvents=0;collapsible=0;recursiveResize=0;shape=mxgraph.aws4.group;grIcon=mxgraph.aws4.group_vpc2;strokeColor=#8C4FFF;fillColor=none;verticalAlign=top;align=left;spacingLeft=30;fontColor=#AAB7B8;dashed=0;" vertex="1" parent="1">
          <mxGeometry x="160" y="120" width="600" height="240" as="geometry" />
        </mxCell>
        <mxCell id="-ypVMLoKg0l6CCi7f9At-6" value="" style="sketch=0;outlineConnect=0;fontColor=#232F3E;gradientColor=none;fillColor=#8C4FFF;strokeColor=none;dashed=0;verticalLabelPosition=bottom;verticalAlign=top;align=center;html=1;fontSize=12;fontStyle=0;aspect=fixed;pointerEvents=1;shape=mxgraph.aws4.internet_gateway;" vertex="1" parent="-ypVMLoKg0l6CCi7f9At-4">
          <mxGeometry x="-30" y="90" width="50" height="50" as="geometry" />
        </mxCell>
        <mxCell id="-ypVMLoKg0l6CCi7f9At-10" value="" style="sketch=0;points=[[0,0,0],[0.25,0,0],[0.5,0,0],[0.75,0,0],[1,0,0],[0,1,0],[0.25,1,0],[0.5,1,0],[0.75,1,0],[1,1,0],[0,0.25,0],[0,0.5,0],[0,0.75,0],[1,0.25,0],[1,0.5,0],[1,0.75,0]];outlineConnect=0;fontColor=#232F3E;fillColor=#ED7100;strokeColor=#ffffff;dashed=0;verticalLabelPosition=bottom;verticalAlign=top;align=center;html=1;fontSize=12;fontStyle=0;aspect=fixed;shape=mxgraph.aws4.resourceIcon;resIcon=mxgraph.aws4.ec2;" vertex="1" parent="-ypVMLoKg0l6CCi7f9At-4">
          <mxGeometry x="350" y="90" width="50" height="50" as="geometry" />
        </mxCell>
        <mxCell id="-ypVMLoKg0l6CCi7f9At-7" value="" style="sketch=0;outlineConnect=0;fontColor=#232F3E;gradientColor=none;fillColor=#8C4FFF;strokeColor=none;dashed=0;verticalLabelPosition=bottom;verticalAlign=top;align=center;html=1;fontSize=12;fontStyle=0;aspect=fixed;pointerEvents=1;shape=mxgraph.aws4.application_load_balancer;direction=south;" vertex="1" parent="-ypVMLoKg0l6CCi7f9At-4">
          <mxGeometry x="170" y="90" width="50" height="50" as="geometry" />
        </mxCell>
        <mxCell id="-ypVMLoKg0l6CCi7f9At-12" value="" style="edgeStyle=orthogonalEdgeStyle;html=1;endArrow=none;elbow=vertical;startArrow=block;startFill=1;strokeColor=#545B64;rounded=0;" edge="1" parent="-ypVMLoKg0l6CCi7f9At-4" source="-ypVMLoKg0l6CCi7f9At-7">
          <mxGeometry width="100" relative="1" as="geometry">
            <mxPoint x="250" y="114.5" as="sourcePoint" />
            <mxPoint x="350" y="114.5" as="targetPoint" />
          </mxGeometry>
        </mxCell>
        <mxCell id="-ypVMLoKg0l6CCi7f9At-13" value="" style="edgeStyle=orthogonalEdgeStyle;html=1;endArrow=none;elbow=vertical;startArrow=block;startFill=1;strokeColor=#545B64;rounded=0;" edge="1" parent="-ypVMLoKg0l6CCi7f9At-4" source="-ypVMLoKg0l6CCi7f9At-6" target="-ypVMLoKg0l6CCi7f9At-7">
          <mxGeometry width="100" relative="1" as="geometry">
            <mxPoint x="55" y="114.5" as="sourcePoint" />
            <mxPoint x="155" y="114.5" as="targetPoint" />
          </mxGeometry>
        </mxCell>
        <mxCell id="-ypVMLoKg0l6CCi7f9At-14" value="" style="edgeStyle=orthogonalEdgeStyle;html=1;endArrow=none;elbow=vertical;startArrow=block;startFill=1;strokeColor=#545B64;rounded=0;entryX=0.5;entryY=0;entryDx=0;entryDy=0;entryPerimeter=0;" edge="1" parent="-ypVMLoKg0l6CCi7f9At-4" target="-ypVMLoKg0l6CCi7f9At-9">
          <mxGeometry width="100" relative="1" as="geometry">
            <mxPoint x="194.5" y="140" as="sourcePoint" />
            <mxPoint x="194.5" y="230" as="targetPoint" />
          </mxGeometry>
        </mxCell>
        <mxCell id="-ypVMLoKg0l6CCi7f9At-15" value="Auto Scaling group" style="points=[[0,0],[0.25,0],[0.5,0],[0.75,0],[1,0],[1,0.25],[1,0.5],[1,0.75],[1,1],[0.75,1],[0.5,1],[0.25,1],[0,1],[0,0.75],[0,0.5],[0,0.25]];outlineConnect=0;gradientColor=none;html=1;whiteSpace=wrap;fontSize=12;fontStyle=0;container=1;pointerEvents=0;collapsible=0;recursiveResize=0;shape=mxgraph.aws4.groupCenter;grIcon=mxgraph.aws4.group_auto_scaling_group;grStroke=1;strokeColor=#D86613;fillColor=none;verticalAlign=top;align=center;fontColor=#D86613;dashed=1;spacingTop=25;" vertex="1" parent="-ypVMLoKg0l6CCi7f9At-4">
          <mxGeometry x="310" y="40" width="130" height="160" as="geometry" />
        </mxCell>
        <mxCell id="-ypVMLoKg0l6CCi7f9At-8" value="" style="sketch=0;points=[[0,0,0],[0.25,0,0],[0.5,0,0],[0.75,0,0],[1,0,0],[0,1,0],[0.25,1,0],[0.5,1,0],[0.75,1,0],[1,1,0],[0,0.25,0],[0,0.5,0],[0,0.75,0],[1,0.25,0],[1,0.5,0],[1,0.75,0]];outlineConnect=0;fontColor=#232F3E;fillColor=#8C4FFF;strokeColor=#ffffff;dashed=0;verticalLabelPosition=bottom;verticalAlign=top;align=center;html=1;fontSize=12;fontStyle=0;aspect=fixed;shape=mxgraph.aws4.resourceIcon;resIcon=mxgraph.aws4.route_53;" vertex="1" parent="1">
          <mxGeometry x="50" y="215" width="50" height="50" as="geometry" />
        </mxCell>
        <mxCell id="-ypVMLoKg0l6CCi7f9At-9" value="" style="sketch=0;points=[[0,0,0],[0.25,0,0],[0.5,0,0],[0.75,0,0],[1,0,0],[0,1,0],[0.25,1,0],[0.5,1,0],[0.75,1,0],[1,1,0],[0,0.25,0],[0,0.5,0],[0,0.75,0],[1,0.25,0],[1,0.5,0],[1,0.75,0]];outlineConnect=0;fontColor=#232F3E;fillColor=#DD344C;strokeColor=#ffffff;dashed=0;verticalLabelPosition=bottom;verticalAlign=top;align=center;html=1;fontSize=12;fontStyle=0;aspect=fixed;shape=mxgraph.aws4.resourceIcon;resIcon=mxgraph.aws4.certificate_manager_3;" vertex="1" parent="1">
          <mxGeometry x="330" y="400" width="50" height="50" as="geometry" />
        </mxCell>
        <mxCell id="-ypVMLoKg0l6CCi7f9At-17" value="SSL&lt;div&gt;Certificate&lt;/div&gt;" style="text;html=1;align=center;verticalAlign=middle;whiteSpace=wrap;rounded=0;" vertex="1" parent="1">
          <mxGeometry x="355" y="330" width="60" height="30" as="geometry" />
        </mxCell>
        <mxCell id="-ypVMLoKg0l6CCi7f9At-19" value="" style="sketch=0;aspect=fixed;pointerEvents=1;shadow=0;dashed=0;html=1;strokeColor=none;labelPosition=center;verticalLabelPosition=bottom;verticalAlign=top;align=center;fillColor=#00188D;shape=mxgraph.azure.certificate" vertex="1" parent="1">
          <mxGeometry x="360" y="290" width="50" height="40" as="geometry" />
        </mxCell>
        <mxCell id="-ypVMLoKg0l6CCi7f9At-20" value="&lt;font size=&quot;1&quot; color=&quot;#ff9933&quot;&gt;&lt;b style=&quot;font-size: 17px;&quot;&gt;Namecheap&lt;/b&gt;&lt;/font&gt;" style="text;html=1;align=center;verticalAlign=middle;whiteSpace=wrap;rounded=0;" vertex="1" parent="1">
          <mxGeometry x="50" y="520" width="60" height="30" as="geometry" />
        </mxCell>
        <mxCell id="-ypVMLoKg0l6CCi7f9At-22" value="" style="edgeStyle=orthogonalEdgeStyle;html=1;endArrow=none;elbow=vertical;startArrow=block;startFill=1;strokeColor=#545B64;rounded=0;entryX=0.5;entryY=0;entryDx=0;entryDy=0;entryPerimeter=0;" edge="1" parent="1">
          <mxGeometry width="100" relative="1" as="geometry">
            <mxPoint x="80" y="520" as="sourcePoint" />
            <mxPoint x="79.5" y="265" as="targetPoint" />
            <Array as="points">
              <mxPoint x="80.5" y="315" />
              <mxPoint x="79.5" y="315" />
            </Array>
          </mxGeometry>
        </mxCell>
      </root>
    </mxGraphModel>
  </diagram>
</mxfile>
